# xmcd
#
# Track frame offsets:
#	150
#	37527
#	59182
#	110330
#	143805
#
# Disc length: 2300 seconds
#
# Revision: 0
# Processed by: cddbd v1.5.1PL0 Copyright (c) Steve Scherf et al.
# Submitted via: dBpowerAMP V4.0
#
DISCID=3e08fa05
DTITLE=Luther Allison - Love The People: Live At The Barrymore
DYEAR=1997
DGENRE=
TTITLE0=Will It Ever Change?
TTITLE1=Low Down And Dirty
TTITLE2=It Hurts Me Too
TTITLE3=You Can't Always Get What You Want
TTITLE4=Meet Me In My Own Hometown
EXTD=Recorded live, July 10, 1997, Barrymore Theatre, Madison, WI
EXTT0=
EXTT1=
EXTT2=
EXTT3=
EXTT4=
PLAYORDER=
